<?xml version="1.0" encoding="UTF-8"?>
<!DOCTYPE svg PUBLIC "-//W3C//DTD SVG 1.1//EN" "http://www.w3.org/Graphics/SVG/1.1/DTD/svg11.dtd">
<!-- Creator: CorelDRAW -->
<svg xmlns="http://www.w3.org/2000/svg" xml:space="preserve" width="268px" height="269px" version="1.1" style="shape-rendering:geometricPrecision; text-rendering:geometricPrecision; image-rendering:optimizeQuality; fill-rule:evenodd; clip-rule:evenodd"
viewBox="0 0 268.25 269.72"
 xmlns:xlink="http://www.w3.org/1999/xlink"
 xmlns:xodm="http://www.corel.com/coreldraw/odm/2003">
 <defs>
  <style type="text/css">
   <![CDATA[
    .fil0 {fill:black}
   ]]>
  </style>
 </defs>
 <g id="Layer_x0020_1">
  <metadata id="CorelCorpID_0Corel-Layer"/>
  <path class="fil0" d="M105.45 168.94c26.83,-2.54 50.65,17.29 53.21,44.29 0.94,9.91 -1.13,19.41 -5.43,27.59 17.77,-12.8 28.91,-33.22 30.99,-57.58 3.88,-45.59 -29.93,-85.71 -75.53,-89.59 -45.59,-3.88 -85.7,29.94 -89.59,75.53 -1.2,14.12 3.14,25.75 9,39.13 6.83,15.58 -35.03,-19.71 -27.09,-85.8 8.81,-73.4 71.07,-128.29 144.73,-122.02 73.66,6.27 128.29,71.07 122.02,144.74 -6.88,80.72 -92.35,142.44 -171.57,119.74 -3.28,-0.93 -5.74,-1.99 -7.52,-3.03 -5.24,-2.59 -9.97,-6.1 -13.96,-10.33 -7.29,-7.72 -12.14,-17.84 -13.21,-29.19 -2.56,-27 17.12,-50.94 43.95,-53.48zm12.54 67.23l2.98 4.37 3.43 5.05c1.52,2.24 1.74,4.9 0.6,7.36 -1.14,2.45 -3.32,3.99 -6,4.24l-5.46 0.52 -5.47 0.52c-2.68,0.25 -5.1,-0.86 -6.69,-3.05 -1.58,-2.19 -1.86,-4.85 -0.79,-7.34l2.43 -5.6 2.1 -4.85c1.1,-2.55 3.32,-4.17 6.07,-4.43 2.75,-0.26 5.24,0.91 6.8,3.21zm-3.58 -37.85l2.1 -4.85 2.43 -5.61c1.07,-2.48 0.78,-5.14 -0.8,-7.34 -1.58,-2.19 -4,-3.29 -6.69,-3.04l-5.46 0.52 -5.47 0.51c-2.67,0.26 -4.85,1.8 -5.99,4.25 -1.14,2.45 -0.92,5.12 0.6,7.36l3.43 5.05 2.97 4.37c1.56,2.29 4.05,3.47 6.8,3.21 2.75,-0.26 4.98,-1.89 6.08,-4.43zm14.93 13.37l5.16 -0.59 5.95 -0.67c2.64,-0.3 4.76,-1.86 5.84,-4.3 1.08,-2.43 0.82,-5.06 -0.72,-7.24l-3.14 -4.44 -3.14 -4.45c-1.54,-2.18 -3.92,-3.29 -6.57,-3.06 -2.64,0.22 -4.8,1.72 -5.95,4.13l-2.59 5.44 -2.24 4.7c-1.18,2.48 -0.95,5.2 0.64,7.43 1.57,2.24 4.05,3.35 6.76,3.05zm0.86 9.08l5.17 -0.4 5.98 -0.45c2.65,-0.21 5.02,0.93 6.54,3.12 1.52,2.19 1.76,4.82 0.65,7.25l-2.25 4.96 -2.25 4.95c-1.1,2.43 -3.23,3.97 -5.87,4.24 -2.64,0.28 -5.04,-0.79 -6.62,-2.94l-3.57 -4.86 -3.08 -4.2c-1.62,-2.21 -1.9,-4.92 -0.77,-7.41 1.13,-2.5 3.35,-4.05 6.07,-4.26zm-40.19 -5.36l-5.18 0.39 -5.98 0.46c-2.64,0.2 -5.02,-0.93 -6.53,-3.12 -1.53,-2.19 -1.76,-4.83 -0.66,-7.25l2.25 -4.96 2.25 -4.95c1.11,-2.43 3.24,-3.97 5.88,-4.24 2.64,-0.28 5.04,0.79 6.62,2.94l3.56 4.85 3.09 4.21c1.62,2.2 1.9,4.92 0.77,7.41 -1.13,2.49 -3.36,4.05 -6.07,4.26zm0.85 9.08l-5.15 0.58 -5.96 0.68c-2.64,0.3 -4.75,1.86 -5.84,4.29 -1.08,2.44 -0.82,5.07 0.72,7.25l3.15 4.44 3.13 4.45c1.54,2.18 3.93,3.29 6.57,3.06 2.65,-0.23 4.81,-1.73 5.95,-4.13l2.59 -5.44 2.24 -4.71c1.18,-2.47 0.95,-5.19 -0.63,-7.42 -1.58,-2.24 -4.06,-3.36 -6.77,-3.05z"/>
 </g>
</svg>
