<?xml version="1.0" encoding="UTF-8"?>
<!DOCTYPE svg PUBLIC "-//W3C//DTD SVG 1.1//EN" "http://www.w3.org/Graphics/SVG/1.1/DTD/svg11.dtd">
<!-- Creator: CorelDRAW -->
<svg xmlns="http://www.w3.org/2000/svg" xml:space="preserve" width="1393px" height="272px" version="1.1" style="shape-rendering:geometricPrecision; text-rendering:geometricPrecision; image-rendering:optimizeQuality; fill-rule:evenodd; clip-rule:evenodd"
viewBox="0 0 1393 271.62"
 xmlns:xlink="http://www.w3.org/1999/xlink"
 xmlns:xodm="http://www.corel.com/coreldraw/odm/2003">
 <defs>
  <style type="text/css">
   <![CDATA[
    .fil0 {fill:black}
   ]]>
  </style>
 </defs>
 <g id="Layer_x0020_1">
  <metadata id="CorelCorpID_0Corel-Layer"/>
  <path class="fil0" d="M105.17 168.49c26.76,-2.53 50.52,17.24 53.07,44.17 0.93,9.89 -1.12,19.36 -5.42,27.52 17.72,-12.76 28.84,-33.13 30.91,-57.43 3.87,-45.47 -29.85,-85.47 -75.33,-89.35 -45.47,-3.87 -85.47,29.86 -89.35,75.33 -1.2,14.09 3.13,25.68 8.97,39.03 6.81,15.54 -34.93,-19.66 -27.02,-85.58 8.79,-73.2 70.89,-127.95 144.35,-121.69 73.47,6.25 127.96,70.88 121.7,144.35 -6.86,80.51 -92.11,142.07 -171.12,119.43 -3.26,-0.93 -5.72,-1.98 -7.49,-3.03 -5.23,-2.58 -9.95,-6.07 -13.93,-10.3 -7.27,-7.69 -12.1,-17.79 -13.17,-29.11 -2.55,-26.92 17.07,-50.81 43.83,-53.34zm12.51 67.05l2.97 4.36 3.42 5.04c1.52,2.23 1.73,4.89 0.6,7.34 -1.14,2.44 -3.31,3.98 -5.99,4.23l-5.44 0.51 -5.46 0.52c-2.67,0.26 -5.09,-0.85 -6.66,-3.03 -1.58,-2.19 -1.87,-4.85 -0.8,-7.32l2.43 -5.59 2.09 -4.84c1.1,-2.54 3.32,-4.16 6.06,-4.42 2.74,-0.26 5.23,0.91 6.78,3.2zm-3.57 -37.75l2.09 -4.83 2.42 -5.6c1.07,-2.47 0.78,-5.13 -0.79,-7.31 -1.58,-2.19 -4,-3.29 -6.67,-3.04l-5.45 0.52 -5.45 0.51c-2.67,0.26 -4.84,1.79 -5.98,4.23 -1.14,2.45 -0.92,5.11 0.59,7.34l3.43 5.04 2.96 4.36c1.56,2.29 4.04,3.46 6.78,3.2 2.75,-0.26 4.97,-1.88 6.07,-4.42zm14.89 13.34l5.14 -0.59 5.94 -0.67c2.63,-0.3 4.74,-1.85 5.82,-4.28 1.08,-2.43 0.82,-5.06 -0.71,-7.23l-3.13 -4.43 -3.14 -4.43c-1.53,-2.18 -3.91,-3.29 -6.55,-3.06 -2.64,0.23 -4.79,1.72 -5.94,4.12l-2.58 5.43 -2.23 4.69c-1.18,2.47 -0.95,5.18 0.63,7.41 1.58,2.23 4.05,3.34 6.75,3.04zm0.86 9.05l5.15 -0.39 5.97 -0.45c2.64,-0.21 5.01,0.92 6.52,3.11 1.51,2.19 1.75,4.81 0.65,7.23l-2.24 4.94 -2.25 4.94c-1.1,2.43 -3.23,3.96 -5.86,4.24 -2.63,0.27 -5.03,-0.8 -6.6,-2.94l-3.56 -4.84 -3.07 -4.19c-1.62,-2.21 -1.9,-4.91 -0.77,-7.4 1.13,-2.49 3.35,-4.04 6.06,-4.25zm-40.09 -5.34l-5.16 0.39 -5.97 0.46c-2.64,0.2 -5,-0.93 -6.52,-3.12 -1.51,-2.18 -1.75,-4.81 -0.65,-7.23l2.24 -4.94 2.25 -4.94c1.1,-2.43 3.23,-3.96 5.86,-4.23 2.64,-0.28 5.03,0.79 6.6,2.93l3.56 4.84 3.08 4.2c1.61,2.2 1.89,4.9 0.76,7.39 -1.13,2.49 -3.34,4.04 -6.05,4.25zm0.85 9.06l-5.14 0.58 -5.94 0.67c-2.63,0.3 -4.74,1.85 -5.82,4.28 -1.08,2.44 -0.82,5.06 0.72,7.23l3.13 4.43 3.13 4.44c1.54,2.17 3.91,3.28 6.55,3.05 2.64,-0.23 4.79,-1.72 5.94,-4.12l2.58 -5.43 2.23 -4.69c1.18,-2.46 0.95,-5.18 -0.63,-7.41 -1.58,-2.23 -4.05,-3.34 -6.75,-3.03zm379.46 -161.18l0 152.17 -20.01 0 0 -113.47 -50.58 113.47 -14.07 0 -50.8 -113.69 0 113.69 -20.01 0 0 -152.17 21.55 0 56.3 125.78 56.29 -125.78 21.33 0zm137.66 31.66l-72.57 177.24 -20.67 0 23.75 -58.05 -48.6 -119.19 22.21 0 37.82 97.64 37.39 -97.64 20.67 0zm106.65 -32.76l0 16.27 -66.63 0 0 51.68 54.09 0 0 16.27 -54.09 0 0 69.05 -20.01 0 0 -153.27 86.64 0zm34.52 13.19c-3.81,0 -7.03,-1.32 -9.67,-3.96 -2.64,-2.64 -3.96,-5.86 -3.96,-9.67 0,-3.81 1.32,-7.04 3.96,-9.68 2.64,-2.64 5.86,-3.96 9.67,-3.96 3.67,0 6.78,1.32 9.35,3.96 2.56,2.64 3.85,5.87 3.85,9.68 0,3.81 -1.29,7.03 -3.85,9.67 -2.57,2.64 -5.68,3.96 -9.35,3.96zm9.68 19.57l0 120.51 -20.01 0 0 -120.51 20.01 0zm54.09 -42.22l0 162.73 -20.01 0 0 -162.73 20.01 0zm179 40.02c9.38,0 17.74,1.95 25.07,5.83 7.33,3.89 13.12,9.71 17.37,17.48 4.25,7.77 6.38,17.23 6.38,28.37l0 71.03 -19.79 0 0 -68.17c0,-12.02 -2.97,-21.22 -8.91,-27.6 -5.93,-6.38 -13.96,-9.57 -24.08,-9.57 -10.4,0 -18.69,3.34 -24.85,10.01 -6.15,6.67 -9.23,16.31 -9.23,28.92l0 66.41 -19.79 0 0 -68.17c0,-12.02 -2.97,-21.22 -8.91,-27.6 -5.94,-6.38 -13.96,-9.57 -24.08,-9.57 -10.41,0 -18.69,3.34 -24.85,10.01 -6.15,6.67 -9.23,16.31 -9.23,28.92l0 66.41 -20.01 0 0 -120.51 20.01 0 0 17.37c3.96,-6.3 9.27,-11.14 15.94,-14.51 6.67,-3.37 14.04,-5.06 22.1,-5.06 10.12,0 19.06,2.28 26.83,6.82 7.77,4.54 13.56,11.21 17.37,20.01 3.37,-8.5 8.94,-15.1 16.71,-19.79 7.77,-4.69 16.42,-7.04 25.95,-7.04zm101.59 106.44l53.66 0 0 16.27 -73.67 0 0 -153.27 20.01 0 0 137zm85.33 -123.81c-3.81,0 -7.04,-1.32 -9.68,-3.96 -2.64,-2.64 -3.96,-5.86 -3.96,-9.67 0,-3.81 1.32,-7.04 3.96,-9.68 2.64,-2.64 5.87,-3.96 9.68,-3.96 3.66,0 6.78,1.32 9.34,3.96 2.57,2.64 3.85,5.87 3.85,9.68 0,3.81 -1.28,7.03 -3.85,9.67 -2.56,2.64 -5.68,3.96 -9.34,3.96zm9.67 19.57l0 120.51 -20.01 0 0 -120.51 20.01 0zm76.75 122.49c-9.24,0 -17.52,-1.58 -24.85,-4.73 -7.33,-3.15 -13.12,-7.55 -17.37,-13.2 -4.25,-5.64 -6.6,-12.13 -7.04,-19.46l20.67 0c0.59,6.01 3.41,10.93 8.47,14.74 5.06,3.81 11.69,5.71 19.9,5.71 7.62,0 13.63,-1.68 18.03,-5.05 4.4,-3.38 6.6,-7.63 6.6,-12.76 0,-5.28 -2.35,-9.2 -7.04,-11.76 -4.69,-2.57 -11.95,-5.1 -21.77,-7.59 -8.94,-2.34 -16.24,-4.73 -21.88,-7.15 -5.64,-2.41 -10.48,-6.01 -14.51,-10.77 -4.03,-4.77 -6.05,-11.03 -6.05,-18.8 0,-6.16 1.83,-11.8 5.5,-16.93 3.66,-5.14 8.87,-9.2 15.61,-12.21 6.74,-3 14.44,-4.51 23.09,-4.51 13.34,0 24.12,3.38 32.32,10.12 8.21,6.74 12.61,15.98 13.2,27.71l-20.01 0c-0.44,-6.31 -2.97,-11.37 -7.59,-15.18 -4.62,-3.81 -10.81,-5.71 -18.58,-5.71 -7.18,0 -12.9,1.53 -17.15,4.61 -4.25,3.08 -6.38,7.11 -6.38,12.1 0,3.96 1.28,7.22 3.85,9.78 2.56,2.57 5.79,4.62 9.67,6.16 3.89,1.54 9.28,3.26 16.17,5.17 8.65,2.34 15.68,4.65 21.11,6.93 5.42,2.27 10.08,5.68 13.96,10.22 3.88,4.55 5.9,10.48 6.05,17.81 0,6.6 -1.83,12.54 -5.5,17.81 -3.66,5.28 -8.83,9.42 -15.5,12.43 -6.67,3 -14.33,4.51 -22.98,4.51zm96.53 -106l0 71.03c0,5.87 1.25,10.01 3.74,12.43 2.49,2.42 6.82,3.63 12.98,3.63l14.73 0 0 16.93 -18.03 0c-11.14,0 -19.5,-2.57 -25.07,-7.7 -5.57,-5.13 -8.36,-13.56 -8.36,-25.29l0 -71.03 -15.61 0 0 -16.49 15.61 0 0 -30.34 20.01 0 0 30.34 31.45 0 0 16.49 -31.45 0z"/>
 </g>
</svg>
